<svg xmlns="http://www.w3.org/2000/svg" xmlns:xlink="http://www.w3.org/1999/xlink" width="174" zoomAndPan="magnify" viewBox="0 0 130.5 52.499999" height="70" preserveAspectRatio="xMidYMid meet" version="1.0"><defs><g/><clipPath id="b83710c5af"><path d="M 108.015625 6 L 117 6 L 117 12.03125 L 108.015625 12.03125 Z M 108.015625 6 " clip-rule="nonzero"/></clipPath><clipPath id="ffe77091cb"><path d="M 108.015625 0 L 119 0 L 119 12.03125 L 108.015625 12.03125 Z M 108.015625 0 " clip-rule="nonzero"/></clipPath><clipPath id="897c6e5327"><path d="M 116 12 L 123.78125 12 L 123.78125 12.03125 L 116 12.03125 Z M 116 12 " clip-rule="nonzero"/></clipPath><clipPath id="09cc1efe29"><path d="M 119.582031 10.90625 L 121 10.90625 L 121 22.9375 L 119.582031 22.9375 Z M 119.582031 10.90625 " clip-rule="nonzero"/></clipPath><clipPath id="97a4b6055a"><path d="M 119.582031 10.90625 L 123 10.90625 L 123 14 L 119.582031 14 Z M 119.582031 10.90625 " clip-rule="nonzero"/></clipPath><clipPath id="7a39d28c67"><path d="M 120 13 L 128.289062 13 L 128.289062 22.9375 L 120 22.9375 Z M 120 13 " clip-rule="nonzero"/></clipPath></defs><g fill="#000000" fill-opacity="1"><g transform="translate(11.547692, 44.966419)"><g><path d="M 7.953125 -22.578125 L 7.953125 -12.75 L 16.15625 -12.75 L 16.15625 -11.09375 L 7.953125 -11.09375 L 7.953125 -3.875 C 7.953125 -3.34375 8.023438 -2.914062 8.171875 -2.59375 C 8.328125 -2.269531 8.523438 -2.019531 8.765625 -1.84375 C 9.015625 -1.675781 9.3125 -1.5625 9.65625 -1.5 C 10 -1.445312 10.359375 -1.421875 10.734375 -1.421875 L 11.875 -1.421875 L 11.875 0 L 1.296875 0 L 1.296875 -1.421875 L 1.734375 -1.421875 C 2.109375 -1.421875 2.460938 -1.445312 2.796875 -1.5 C 3.128906 -1.550781 3.421875 -1.65625 3.671875 -1.8125 C 3.929688 -1.96875 4.132812 -2.195312 4.28125 -2.5 C 4.4375 -2.800781 4.515625 -3.203125 4.515625 -3.703125 L 4.515625 -20.53125 C 4.515625 -21.03125 4.4375 -21.429688 4.28125 -21.734375 C 4.132812 -22.046875 3.929688 -22.28125 3.671875 -22.4375 C 3.421875 -22.601562 3.128906 -22.710938 2.796875 -22.765625 C 2.460938 -22.816406 2.109375 -22.84375 1.734375 -22.84375 L 1.296875 -22.84375 L 1.296875 -24.265625 L 18.421875 -24.265625 L 18.59375 -18.328125 L 16.828125 -18.328125 L 16.671875 -19.796875 C 16.628906 -20.179688 16.539062 -20.539062 16.40625 -20.875 C 16.269531 -21.21875 16.078125 -21.507812 15.828125 -21.75 C 15.578125 -22 15.265625 -22.195312 14.890625 -22.34375 C 14.515625 -22.5 14.0625 -22.578125 13.53125 -22.578125 Z M 7.953125 -22.578125 "/></g></g></g><g fill="#000000" fill-opacity="1"><g transform="translate(31.593428, 44.966419)"><g><path d="M 17.75 -9.140625 C 17.75 -5.941406 17.070312 -3.5625 15.71875 -2 C 14.363281 -0.445312 12.378906 0.328125 9.765625 0.328125 C 8.535156 0.328125 7.429688 0.132812 6.453125 -0.25 C 5.484375 -0.632812 4.65625 -1.21875 3.96875 -2 C 3.289062 -2.789062 2.769531 -3.78125 2.40625 -4.96875 C 2.050781 -6.15625 1.875 -7.546875 1.875 -9.140625 C 1.875 -12.316406 2.546875 -14.679688 3.890625 -16.234375 C 5.234375 -17.785156 7.222656 -18.5625 9.859375 -18.5625 C 11.085938 -18.5625 12.1875 -18.367188 13.15625 -17.984375 C 14.132812 -17.609375 14.960938 -17.03125 15.640625 -16.25 C 16.328125 -15.46875 16.847656 -14.484375 17.203125 -13.296875 C 17.566406 -12.117188 17.75 -10.734375 17.75 -9.140625 Z M 5.15625 -9.140625 C 5.15625 -7.878906 5.238281 -6.765625 5.40625 -5.796875 C 5.570312 -4.835938 5.84375 -4.035156 6.21875 -3.390625 C 6.59375 -2.742188 7.070312 -2.253906 7.65625 -1.921875 C 8.25 -1.585938 8.972656 -1.421875 9.828125 -1.421875 C 10.679688 -1.421875 11.398438 -1.585938 11.984375 -1.921875 C 12.566406 -2.253906 13.039062 -2.742188 13.40625 -3.390625 C 13.78125 -4.035156 14.046875 -4.835938 14.203125 -5.796875 C 14.359375 -6.765625 14.4375 -7.878906 14.4375 -9.140625 C 14.4375 -10.410156 14.351562 -11.519531 14.1875 -12.46875 C 14.03125 -13.414062 13.765625 -14.207031 13.390625 -14.84375 C 13.023438 -15.488281 12.546875 -15.96875 11.953125 -16.28125 C 11.367188 -16.601562 10.648438 -16.765625 9.796875 -16.765625 C 8.941406 -16.765625 8.21875 -16.601562 7.625 -16.28125 C 7.039062 -15.96875 6.566406 -15.488281 6.203125 -14.84375 C 5.835938 -14.207031 5.570312 -13.414062 5.40625 -12.46875 C 5.238281 -11.519531 5.15625 -10.410156 5.15625 -9.140625 Z M 5.15625 -9.140625 "/></g></g></g><g fill="#000000" fill-opacity="1"><g transform="translate(51.207716, 44.966419)"><g><path d="M 10.9375 0 L 1.125 0 L 1.125 -1.421875 L 1.234375 -1.421875 C 1.617188 -1.421875 1.976562 -1.445312 2.3125 -1.5 C 2.65625 -1.5625 2.945312 -1.675781 3.1875 -1.84375 C 3.4375 -2.019531 3.632812 -2.269531 3.78125 -2.59375 C 3.9375 -2.914062 4.015625 -3.34375 4.015625 -3.875 L 4.015625 -14.484375 C 4.015625 -14.972656 3.9375 -15.367188 3.78125 -15.671875 C 3.632812 -15.984375 3.4375 -16.222656 3.1875 -16.390625 C 2.9375 -16.554688 2.640625 -16.664062 2.296875 -16.71875 C 1.960938 -16.769531 1.609375 -16.796875 1.234375 -16.796875 L 1.125 -16.796875 L 1.125 -18.234375 L 6.359375 -18.234375 L 7 -14.859375 L 7.171875 -14.859375 C 7.390625 -15.367188 7.613281 -15.847656 7.84375 -16.296875 C 8.082031 -16.742188 8.367188 -17.132812 8.703125 -17.46875 C 9.046875 -17.8125 9.460938 -18.078125 9.953125 -18.265625 C 10.453125 -18.460938 11.082031 -18.5625 11.84375 -18.5625 C 13.082031 -18.5625 14 -18.34375 14.59375 -17.90625 C 15.195312 -17.476562 15.5 -16.875 15.5 -16.09375 C 15.5 -15.738281 15.441406 -15.410156 15.328125 -15.109375 C 15.210938 -14.804688 15.023438 -14.546875 14.765625 -14.328125 C 14.515625 -14.117188 14.191406 -13.953125 13.796875 -13.828125 C 13.398438 -13.710938 12.910156 -13.65625 12.328125 -13.65625 C 12.328125 -14.601562 12.191406 -15.28125 11.921875 -15.6875 C 11.660156 -16.101562 11.203125 -16.3125 10.546875 -16.3125 C 10.117188 -16.3125 9.738281 -16.191406 9.40625 -15.953125 C 9.082031 -15.722656 8.796875 -15.410156 8.546875 -15.015625 C 8.296875 -14.617188 8.082031 -14.164062 7.90625 -13.65625 C 7.738281 -13.15625 7.601562 -12.632812 7.5 -12.09375 C 7.394531 -11.5625 7.316406 -11.03125 7.265625 -10.5 C 7.222656 -9.96875 7.203125 -9.484375 7.203125 -9.046875 L 7.203125 -3.703125 C 7.203125 -3.203125 7.273438 -2.800781 7.421875 -2.5 C 7.578125 -2.195312 7.78125 -1.96875 8.03125 -1.8125 C 8.289062 -1.65625 8.585938 -1.550781 8.921875 -1.5 C 9.265625 -1.445312 9.625 -1.421875 10 -1.421875 L 10.9375 -1.421875 Z M 10.9375 0 "/></g></g></g><g fill="#000000" fill-opacity="1"><g transform="translate(67.22108, 44.966419)"><g><path d="M 9.015625 -1.46875 C 9.421875 -1.46875 9.796875 -1.488281 10.140625 -1.53125 C 10.484375 -1.570312 10.832031 -1.625 11.1875 -1.6875 L 11.1875 -0.203125 C 11.039062 -0.128906 10.851562 -0.0625 10.625 0 C 10.394531 0.0625 10.144531 0.117188 9.875 0.171875 C 9.601562 0.222656 9.316406 0.257812 9.015625 0.28125 C 8.710938 0.3125 8.429688 0.328125 8.171875 0.328125 C 7.304688 0.328125 6.5625 0.234375 5.9375 0.046875 C 5.320312 -0.128906 4.8125 -0.421875 4.40625 -0.828125 C 4.007812 -1.234375 3.710938 -1.773438 3.515625 -2.453125 C 3.328125 -3.128906 3.234375 -3.957031 3.234375 -4.9375 L 3.234375 -16.28125 L 0.640625 -16.28125 L 0.640625 -17.640625 C 1.054688 -17.640625 1.507812 -17.722656 2 -17.890625 C 2.488281 -18.054688 2.921875 -18.335938 3.296875 -18.734375 C 3.691406 -19.148438 4.003906 -19.644531 4.234375 -20.21875 C 4.472656 -20.800781 4.679688 -21.53125 4.859375 -22.40625 L 6.421875 -22.40625 L 6.421875 -18.234375 L 10.875 -18.234375 L 10.875 -16.28125 L 6.421875 -16.28125 L 6.421875 -4.828125 C 6.421875 -3.671875 6.65625 -2.820312 7.125 -2.28125 C 7.601562 -1.738281 8.234375 -1.46875 9.015625 -1.46875 Z M 9.015625 -1.46875 "/></g></g></g><g fill="#000000" fill-opacity="1"><g transform="translate(79.18547, 44.966419)"><g><path d="M 9.34375 -16.734375 C 8.082031 -16.734375 7.109375 -16.21875 6.421875 -15.1875 C 5.742188 -14.164062 5.347656 -12.671875 5.234375 -10.703125 L 13.046875 -10.703125 C 13.046875 -11.597656 12.976562 -12.414062 12.84375 -13.15625 C 12.71875 -13.90625 12.507812 -14.546875 12.21875 -15.078125 C 11.925781 -15.609375 11.546875 -16.015625 11.078125 -16.296875 C 10.609375 -16.585938 10.03125 -16.734375 9.34375 -16.734375 Z M 9.765625 0.328125 C 8.535156 0.328125 7.429688 0.125 6.453125 -0.28125 C 5.472656 -0.695312 4.644531 -1.300781 3.96875 -2.09375 C 3.289062 -2.894531 2.769531 -3.875 2.40625 -5.03125 C 2.050781 -6.195312 1.875 -7.515625 1.875 -8.984375 C 1.875 -12.160156 2.523438 -14.550781 3.828125 -16.15625 C 5.140625 -17.757812 7 -18.5625 9.40625 -18.5625 C 10.507812 -18.5625 11.5 -18.390625 12.375 -18.046875 C 13.25 -17.703125 13.988281 -17.1875 14.59375 -16.5 C 15.195312 -15.820312 15.660156 -14.976562 15.984375 -13.96875 C 16.316406 -12.957031 16.484375 -11.78125 16.484375 -10.4375 L 16.484375 -8.875 L 5.15625 -8.875 C 5.1875 -7.632812 5.3125 -6.566406 5.53125 -5.671875 C 5.757812 -4.785156 6.085938 -4.054688 6.515625 -3.484375 C 6.941406 -2.910156 7.460938 -2.488281 8.078125 -2.21875 C 8.703125 -1.945312 9.421875 -1.8125 10.234375 -1.8125 C 10.816406 -1.8125 11.359375 -1.875 11.859375 -2 C 12.367188 -2.132812 12.828125 -2.3125 13.234375 -2.53125 C 13.640625 -2.757812 14 -3.015625 14.3125 -3.296875 C 14.632812 -3.578125 14.894531 -3.875 15.09375 -4.1875 C 15.25 -4.113281 15.394531 -3.972656 15.53125 -3.765625 C 15.664062 -3.554688 15.734375 -3.304688 15.734375 -3.015625 C 15.734375 -2.671875 15.613281 -2.300781 15.375 -1.90625 C 15.132812 -1.519531 14.765625 -1.160156 14.265625 -0.828125 C 13.765625 -0.492188 13.140625 -0.21875 12.390625 0 C 11.640625 0.21875 10.765625 0.328125 9.765625 0.328125 Z M 9.765625 0.328125 "/></g></g></g><g fill="#000000" fill-opacity="1"><g transform="translate(97.372661, 44.966419)"><g><path d="M 0.875 -1.421875 C 1.269531 -1.421875 1.632812 -1.445312 1.96875 -1.5 C 2.300781 -1.5625 2.59375 -1.675781 2.84375 -1.84375 C 3.09375 -2.019531 3.289062 -2.269531 3.4375 -2.59375 C 3.59375 -2.914062 3.671875 -3.34375 3.671875 -3.875 L 3.671875 -22.09375 C 3.671875 -22.59375 3.59375 -22.992188 3.4375 -23.296875 C 3.289062 -23.597656 3.085938 -23.832031 2.828125 -24 C 2.578125 -24.164062 2.28125 -24.273438 1.9375 -24.328125 C 1.601562 -24.378906 1.25 -24.40625 0.875 -24.40625 L 0.453125 -24.40625 L 0.453125 -25.828125 L 6.875 -25.828125 L 6.875 -3.875 C 6.875 -3.34375 6.945312 -2.914062 7.09375 -2.59375 C 7.238281 -2.269531 7.4375 -2.019531 7.6875 -1.84375 C 7.9375 -1.675781 8.226562 -1.5625 8.5625 -1.5 C 8.90625 -1.445312 9.269531 -1.421875 9.65625 -1.421875 L 10.09375 -1.421875 L 10.09375 0 L 0.453125 0 L 0.453125 -1.421875 Z M 0.875 -1.421875 "/></g></g></g><g fill="#000000" fill-opacity="1"><g transform="translate(107.909955, 44.966419)"><g><path d="M 0.875 -1.421875 C 1.269531 -1.421875 1.632812 -1.445312 1.96875 -1.5 C 2.300781 -1.5625 2.59375 -1.675781 2.84375 -1.84375 C 3.09375 -2.019531 3.289062 -2.269531 3.4375 -2.59375 C 3.59375 -2.914062 3.671875 -3.34375 3.671875 -3.875 L 3.671875 -22.09375 C 3.671875 -22.59375 3.59375 -22.992188 3.4375 -23.296875 C 3.289062 -23.597656 3.085938 -23.832031 2.828125 -24 C 2.578125 -24.164062 2.28125 -24.273438 1.9375 -24.328125 C 1.601562 -24.378906 1.25 -24.40625 0.875 -24.40625 L 0.453125 -24.40625 L 0.453125 -25.828125 L 6.875 -25.828125 L 6.875 -3.875 C 6.875 -3.34375 6.945312 -2.914062 7.09375 -2.59375 C 7.238281 -2.269531 7.4375 -2.019531 7.6875 -1.84375 C 7.9375 -1.675781 8.226562 -1.5625 8.5625 -1.5 C 8.90625 -1.445312 9.269531 -1.421875 9.65625 -1.421875 L 10.09375 -1.421875 L 10.09375 0 L 0.453125 0 L 0.453125 -1.421875 Z M 0.875 -1.421875 "/></g></g></g><g clip-path="url(#b83710c5af)"><path fill="#000000" d="M 115.191406 24.757812 L 115.191406 24.753906 C 114.414062 21.949219 113.144531 19.316406 111.40625 16.929688 C 110.035156 15.054688 108.417969 13.390625 106.59375 11.988281 C 103.382812 9.519531 99.558594 7.878906 95.535156 7.246094 C 92.4375 6.757812 89.324219 6.867188 86.285156 7.566406 C 83.09375 8.300781 80.125 9.652344 77.457031 11.589844 C 75.230469 13.207031 73.3125 15.160156 71.757812 17.402344 C 69.703125 20.367188 68.316406 23.824219 67.75 27.402344 C 67.109375 31.417969 67.496094 35.550781 68.867188 39.359375 C 69.640625 41.519531 70.730469 43.570312 72.097656 45.449219 C 72.640625 46.195312 73.222656 46.902344 73.839844 47.574219 C 73.859375 47.578125 73.878906 47.582031 73.902344 47.585938 C 74.152344 47.640625 74.617188 47.734375 75.367188 47.8125 C 75.691406 47.839844 76.015625 47.867188 76.34375 47.890625 C 75.246094 46.882812 74.246094 45.761719 73.351562 44.539062 C 72.070312 42.777344 71.050781 40.859375 70.328125 38.839844 C 69.046875 35.273438 68.683594 31.402344 69.28125 27.644531 C 69.8125 24.292969 71.109375 21.058594 73.035156 18.28125 C 74.488281 16.183594 76.285156 14.355469 78.371094 12.839844 C 80.867188 11.027344 83.648438 9.761719 86.632812 9.074219 C 88.3125 8.6875 90.015625 8.492188 91.726562 8.492188 C 92.914062 8.492188 94.101562 8.585938 95.292969 8.773438 C 99.0625 9.367188 102.644531 10.902344 105.648438 13.214844 C 107.355469 14.527344 108.871094 16.082031 110.152344 17.839844 C 111.777344 20.074219 112.96875 22.539062 113.695312 25.167969 C 114.558594 28.292969 114.734375 31.511719 114.226562 34.730469 C 113.769531 37.621094 112.773438 40.355469 111.273438 42.859375 C 110.148438 44.738281 108.769531 46.421875 107.160156 47.894531 C 107.5 47.867188 107.835938 47.84375 108.167969 47.8125 C 108.921875 47.734375 109.386719 47.640625 109.636719 47.585938 C 109.644531 47.585938 109.652344 47.582031 109.660156 47.582031 C 110.769531 46.378906 111.753906 45.070312 112.605469 43.652344 C 114.207031 40.980469 115.269531 38.058594 115.757812 34.972656 C 116.300781 31.535156 116.113281 28.097656 115.191406 24.757812 " fill-opacity="1" fill-rule="nonzero"/></g><g clip-path="url(#ffe77091cb)"><path fill="#000000" d="M 113.269531 12.628906 C 113.105469 12.628906 112.964844 12.511719 112.9375 12.351562 L 112.140625 8.082031 L 108.71875 9.121094 C 108.566406 9.167969 108.398438 9.101562 108.324219 8.960938 C 108.25 8.816406 108.285156 8.640625 108.40625 8.539062 L 111.101562 6.335938 L 108.40625 4.136719 C 108.285156 4.035156 108.25 3.859375 108.324219 3.714844 C 108.398438 3.574219 108.566406 3.503906 108.71875 3.554688 L 112.140625 4.59375 L 112.9375 0.324219 C 112.964844 0.164062 113.105469 0.046875 113.269531 0.046875 C 113.429688 0.046875 113.570312 0.164062 113.601562 0.324219 L 114.394531 4.59375 L 117.816406 3.554688 C 117.96875 3.503906 118.136719 3.574219 118.210938 3.714844 C 118.289062 3.859375 118.253906 4.035156 118.128906 4.136719 L 115.433594 6.335938 L 118.128906 8.539062 C 118.253906 8.640625 118.289062 8.816406 118.210938 8.960938 C 118.136719 9.101562 117.96875 9.171875 117.816406 9.121094 L 114.394531 8.082031 L 113.601562 12.351562 C 113.570312 12.511719 113.429688 12.628906 113.269531 12.628906 " fill-opacity="1" fill-rule="nonzero"/></g><g clip-path="url(#897c6e5327)"><path fill="#000000" d="M 120.234375 21.339844 C 120.117188 21.339844 120.011719 21.253906 119.988281 21.136719 L 119.402344 17.980469 L 116.871094 18.746094 C 116.757812 18.78125 116.632812 18.730469 116.578125 18.628906 C 116.523438 18.523438 116.546875 18.390625 116.640625 18.316406 L 118.632812 16.6875 L 116.640625 15.058594 C 116.546875 14.984375 116.523438 14.855469 116.578125 14.75 C 116.632812 14.644531 116.757812 14.59375 116.871094 14.628906 L 119.402344 15.394531 L 119.988281 12.238281 C 120.011719 12.121094 120.117188 12.035156 120.234375 12.035156 C 120.355469 12.035156 120.457031 12.121094 120.480469 12.238281 L 121.070312 15.394531 L 123.597656 14.628906 C 123.710938 14.59375 123.835938 14.644531 123.890625 14.75 C 123.949219 14.855469 123.921875 14.984375 123.832031 15.058594 L 121.835938 16.6875 L 123.832031 18.316406 C 123.921875 18.390625 123.949219 18.523438 123.890625 18.628906 C 123.835938 18.730469 123.710938 18.78125 123.597656 18.746094 L 121.070312 17.980469 L 120.480469 21.136719 C 120.457031 21.253906 120.355469 21.339844 120.234375 21.339844 " fill-opacity="1" fill-rule="nonzero"/></g><g clip-path="url(#09cc1efe29)"><path fill="#000000" d="M 119.53125 26.078125 L 119.53125 26.074219 C 118.757812 23.269531 117.484375 20.636719 115.746094 18.25 C 114.375 16.375 112.757812 14.710938 110.9375 13.308594 C 107.722656 10.839844 103.898438 9.199219 99.875 8.566406 C 96.777344 8.078125 93.664062 8.1875 90.625 8.886719 C 87.433594 9.621094 84.464844 10.972656 81.796875 12.910156 C 79.570312 14.523438 77.652344 16.480469 76.097656 18.722656 C 74.042969 21.6875 72.65625 25.144531 72.089844 28.722656 C 71.453125 32.738281 71.839844 36.871094 73.207031 40.679688 C 73.980469 42.839844 75.070312 44.890625 76.441406 46.769531 C 76.984375 47.515625 77.566406 48.222656 78.179688 48.894531 C 78.199219 48.898438 78.21875 48.902344 78.242188 48.90625 C 78.492188 48.960938 78.957031 49.054688 79.710938 49.132812 C 80.03125 49.160156 80.355469 49.1875 80.6875 49.210938 C 79.589844 48.203125 78.585938 47.082031 77.695312 45.859375 C 76.410156 44.097656 75.394531 42.179688 74.667969 40.160156 C 73.386719 36.59375 73.023438 32.722656 73.621094 28.964844 C 74.152344 25.613281 75.449219 22.378906 77.375 19.601562 C 78.828125 17.503906 80.625 15.675781 82.710938 14.160156 C 85.207031 12.347656 87.988281 11.082031 90.972656 10.394531 C 92.652344 10.007812 94.355469 9.8125 96.066406 9.8125 C 97.253906 9.8125 98.445312 9.90625 99.632812 10.09375 C 103.402344 10.6875 106.984375 12.222656 109.988281 14.535156 C 111.695312 15.84375 113.210938 17.402344 114.492188 19.160156 C 116.117188 21.394531 117.3125 23.859375 118.035156 26.488281 C 118.898438 29.613281 119.074219 32.832031 118.566406 36.050781 C 118.109375 38.941406 117.117188 41.675781 115.613281 44.179688 C 114.488281 46.058594 113.109375 47.742188 111.5 49.214844 C 111.839844 49.1875 112.179688 49.160156 112.511719 49.132812 C 113.261719 49.054688 113.726562 48.960938 113.976562 48.90625 C 113.984375 48.90625 113.992188 48.902344 114.003906 48.902344 C 115.109375 47.699219 116.097656 46.390625 116.945312 44.972656 C 118.550781 42.300781 119.609375 39.378906 120.097656 36.292969 C 120.640625 32.855469 120.453125 29.417969 119.53125 26.078125 " fill-opacity="1" fill-rule="nonzero"/></g><g clip-path="url(#97a4b6055a)"><path fill="#000000" d="M 117.609375 13.945312 C 117.445312 13.945312 117.304688 13.832031 117.277344 13.671875 L 116.480469 9.402344 L 113.0625 10.441406 C 112.90625 10.488281 112.742188 10.421875 112.664062 10.28125 C 112.589844 10.136719 112.625 9.960938 112.75 9.859375 L 115.441406 7.65625 L 112.75 5.457031 C 112.625 5.355469 112.589844 5.175781 112.664062 5.035156 C 112.742188 4.894531 112.90625 4.824219 113.0625 4.871094 L 116.480469 5.910156 L 117.277344 1.644531 C 117.304688 1.484375 117.445312 1.367188 117.609375 1.367188 C 117.769531 1.367188 117.910156 1.484375 117.941406 1.644531 L 118.734375 5.910156 L 122.15625 4.871094 C 122.308594 4.824219 122.476562 4.894531 122.550781 5.035156 C 122.628906 5.175781 122.59375 5.355469 122.46875 5.457031 L 119.773438 7.65625 L 122.46875 9.859375 C 122.59375 9.960938 122.628906 10.136719 122.550781 10.28125 C 122.476562 10.421875 122.308594 10.488281 122.15625 10.441406 L 118.734375 9.402344 L 117.941406 13.671875 C 117.910156 13.832031 117.769531 13.945312 117.609375 13.945312 " fill-opacity="1" fill-rule="nonzero"/></g><g clip-path="url(#7a39d28c67)"><path fill="#000000" d="M 124.574219 22.660156 C 124.457031 22.660156 124.351562 22.574219 124.332031 22.457031 L 123.742188 19.300781 L 121.210938 20.066406 C 121.097656 20.101562 120.976562 20.050781 120.917969 19.945312 C 120.863281 19.84375 120.886719 19.710938 120.980469 19.636719 L 122.972656 18.007812 L 120.980469 16.378906 C 120.886719 16.304688 120.863281 16.171875 120.917969 16.070312 C 120.976562 15.964844 121.097656 15.914062 121.210938 15.949219 L 123.742188 16.714844 L 124.332031 13.558594 C 124.351562 13.441406 124.457031 13.355469 124.574219 13.355469 C 124.695312 13.355469 124.800781 13.441406 124.820312 13.558594 L 125.410156 16.714844 L 127.941406 15.949219 C 128.054688 15.914062 128.175781 15.964844 128.230469 16.070312 C 128.289062 16.171875 128.261719 16.304688 128.171875 16.378906 L 126.179688 18.007812 L 128.171875 19.636719 C 128.261719 19.710938 128.289062 19.84375 128.230469 19.945312 C 128.175781 20.050781 128.054688 20.101562 127.941406 20.066406 L 125.410156 19.300781 L 124.820312 22.457031 C 124.800781 22.574219 124.695312 22.660156 124.574219 22.660156 " fill-opacity="1" fill-rule="nonzero"/></g></svg>