<svg xmlns="http://www.w3.org/2000/svg" xmlns:xlink="http://www.w3.org/1999/xlink" width="178" zoomAndPan="magnify" viewBox="0 0 133.5 30.000001" height="40" preserveAspectRatio="xMidYMid meet" version="1.0"><defs><g/><clipPath id="4aca1b8507"><path d="M 1.910156 0 L 131.105469 0 L 131.105469 29.03125 L 1.910156 29.03125 Z M 1.910156 0 " clip-rule="nonzero"/></clipPath><clipPath id="64dd6111ce"><path d="M 14.269531 24.933594 L 30.597656 24.933594 L 30.597656 27.0625 L 14.269531 27.0625 Z M 14.269531 24.933594 " clip-rule="nonzero"/></clipPath><clipPath id="7a19169d71"><path d="M 28 1.9375 L 33 1.9375 L 33 7 L 28 7 Z M 28 1.9375 " clip-rule="nonzero"/></clipPath><clipPath id="d816e7cb78"><path d="M 31 6 L 34.625 6 L 34.625 11 L 31 11 Z M 31 6 " clip-rule="nonzero"/></clipPath><clipPath id="f04d750ff7"><path d="M 10.753906 5 L 14 5 L 14 9 L 10.753906 9 Z M 10.753906 5 " clip-rule="nonzero"/></clipPath><clipPath id="44cfbddf5d"><path d="M 14.042969 6.300781 L 27.28125 6.300781 L 27.28125 19.539062 L 14.042969 19.539062 Z M 14.042969 6.300781 " clip-rule="nonzero"/></clipPath><clipPath id="d953bc45fc"><path d="M 19.550781 8.140625 L 25.164062 8.140625 L 25.164062 18.457031 L 19.550781 18.457031 Z M 19.550781 8.140625 " clip-rule="nonzero"/></clipPath></defs><g clip-path="url(#4aca1b8507)"><path fill="#ffffff" d="M 1.910156 0 L 131.105469 0 L 131.105469 29.03125 L 1.910156 29.03125 Z M 1.910156 0 " fill-opacity="1" fill-rule="nonzero"/><path fill="#ffffff" d="M 1.910156 0 L 131.105469 0 L 131.105469 29.03125 L 1.910156 29.03125 Z M 1.910156 0 " fill-opacity="1" fill-rule="nonzero"/></g><path fill="#5b5f97" d="M 31.277344 11.320312 C 30.984375 10.253906 30.503906 9.257812 29.847656 8.355469 C 29.328125 7.644531 28.71875 7.011719 28.03125 6.480469 C 26.816406 5.546875 25.371094 4.925781 23.847656 4.683594 C 22.679688 4.5 21.503906 4.542969 20.355469 4.804688 C 19.148438 5.085938 18.027344 5.597656 17.019531 6.332031 C 16.175781 6.941406 15.453125 7.683594 14.863281 8.53125 C 14.085938 9.65625 13.5625 10.964844 13.351562 12.320312 C 13.109375 13.84375 13.253906 15.410156 13.773438 16.851562 C 14.066406 17.671875 14.476562 18.445312 14.992188 19.160156 C 15.199219 19.441406 15.417969 19.710938 15.652344 19.964844 C 15.660156 19.964844 15.667969 19.96875 15.675781 19.96875 C 15.769531 19.988281 15.945312 20.023438 16.230469 20.054688 C 16.351562 20.066406 16.472656 20.074219 16.597656 20.085938 C 16.183594 19.703125 15.804688 19.277344 15.46875 18.8125 C 14.984375 18.148438 14.597656 17.421875 14.324219 16.65625 C 13.839844 15.304688 13.703125 13.835938 13.929688 12.414062 C 14.128906 11.144531 14.621094 9.917969 15.347656 8.867188 C 15.894531 8.070312 16.574219 7.378906 17.363281 6.804688 C 18.308594 6.117188 19.359375 5.636719 20.484375 5.378906 C 21.121094 5.230469 21.765625 5.15625 22.410156 5.15625 C 22.859375 5.15625 23.308594 5.191406 23.757812 5.265625 C 25.183594 5.488281 26.535156 6.070312 27.671875 6.945312 C 28.316406 7.441406 28.890625 8.03125 29.375 8.699219 C 29.988281 9.546875 30.4375 10.480469 30.710938 11.472656 C 31.039062 12.660156 31.105469 13.878906 30.914062 15.097656 C 30.738281 16.191406 30.363281 17.230469 29.796875 18.175781 C 29.371094 18.890625 28.851562 19.527344 28.242188 20.085938 C 28.371094 20.074219 28.5 20.066406 28.625 20.054688 C 28.910156 20.023438 29.085938 19.988281 29.179688 19.96875 C 29.183594 19.96875 29.183594 19.96875 29.1875 19.96875 C 29.605469 19.511719 29.980469 19.015625 30.300781 18.480469 C 30.90625 17.464844 31.308594 16.359375 31.492188 15.191406 C 31.699219 13.886719 31.625 12.585938 31.277344 11.320312 " fill-opacity="1" fill-rule="nonzero"/><path fill="#5b5f97" d="M 29.332031 20.664062 C 29.335938 20.625 29.332031 20.59375 29.332031 20.5625 C 29.328125 20.523438 29.320312 20.429688 29.28125 20.339844 C 29.277344 20.335938 29.277344 20.335938 29.277344 20.332031 C 29.273438 20.328125 29.273438 20.320312 29.269531 20.316406 C 29.246094 20.273438 29.238281 20.253906 29.191406 20.210938 C 29.175781 20.199219 28.988281 20.261719 28.539062 20.308594 C 26.683594 20.46875 24.453125 20.492188 22.425781 20.507812 C 20.398438 20.492188 18.171875 20.46875 16.3125 20.308594 C 15.863281 20.261719 15.675781 20.199219 15.664062 20.210938 C 15.617188 20.253906 15.605469 20.273438 15.585938 20.316406 C 15.582031 20.320312 15.578125 20.328125 15.578125 20.332031 C 15.574219 20.335938 15.574219 20.335938 15.574219 20.339844 C 15.535156 20.429688 15.527344 20.523438 15.523438 20.5625 C 15.519531 20.59375 15.519531 20.625 15.519531 20.664062 C 15.519531 20.714844 15.519531 20.773438 15.535156 20.839844 L 15.699219 21.765625 C 15.707031 21.796875 15.792969 21.824219 15.953125 21.855469 C 16.117188 21.882812 16.355469 21.910156 16.667969 21.9375 C 18.363281 22.058594 20.285156 22.078125 22.070312 22.078125 C 22.191406 22.078125 22.308594 22.078125 22.425781 22.074219 C 22.546875 22.078125 22.664062 22.078125 22.78125 22.078125 C 24.570312 22.078125 26.488281 22.058594 28.183594 21.9375 C 28.496094 21.910156 28.734375 21.882812 28.898438 21.855469 C 29.0625 21.824219 29.148438 21.796875 29.152344 21.765625 L 29.320312 20.839844 C 29.332031 20.773438 29.335938 20.714844 29.332031 20.664062 " fill-opacity="1" fill-rule="nonzero"/><path fill="#5b5f97" d="M 17.066406 25.082031 C 18.734375 25.183594 20.578125 25.242188 22.425781 25.25 C 24.277344 25.242188 26.117188 25.183594 27.789062 25.082031 C 28.144531 25.058594 29.707031 24.949219 30.164062 24.773438 C 29.933594 24.089844 29.699219 23.402344 29.46875 22.714844 C 29.390625 22.480469 29.289062 22.171875 29.226562 21.984375 C 29.085938 22.019531 28.9375 22.03125 28.777344 22.054688 C 26.84375 22.253906 24.523438 22.28125 22.410156 22.292969 C 20.296875 22.28125 17.976562 22.253906 16.042969 22.054688 C 15.894531 22.035156 15.753906 22.023438 15.625 21.992188 C 15.5625 22.179688 15.464844 22.480469 15.386719 22.714844 C 15.152344 23.402344 14.921875 24.089844 14.6875 24.773438 C 15.144531 24.949219 16.707031 25.058594 17.066406 25.082031 " fill-opacity="1" fill-rule="nonzero"/><g clip-path="url(#64dd6111ce)"><path fill="#5b5f97" d="M 30.554688 25.296875 C 30.542969 25.222656 30.519531 25.140625 30.488281 25.070312 C 30.433594 24.960938 30.261719 24.941406 30.273438 24.964844 C 30.078125 25.175781 28.183594 25.308594 27.789062 25.332031 C 26.117188 25.433594 24.277344 25.492188 22.425781 25.5 C 20.578125 25.492188 18.734375 25.433594 17.066406 25.332031 C 16.667969 25.308594 14.777344 25.175781 14.578125 24.964844 C 14.589844 24.941406 14.421875 24.960938 14.367188 25.070312 C 14.332031 25.140625 14.308594 25.222656 14.296875 25.296875 C 14.289062 25.359375 14.289062 26.480469 14.289062 26.480469 C 14.324219 26.65625 15.050781 26.742188 15.429688 26.796875 C 17.625 27.042969 20.121094 27.078125 22.425781 27.070312 C 24.734375 27.078125 27.230469 27.042969 29.421875 26.796875 C 29.800781 26.742188 30.53125 26.65625 30.566406 26.480469 C 30.566406 26.480469 30.5625 25.359375 30.554688 25.296875 " fill-opacity="1" fill-rule="nonzero"/></g><path fill="#5b5f97" d="M 19.175781 7.5625 C 18.65625 7.109375 17.414062 7.695312 16.398438 8.875 C 15.382812 10.054688 14.980469 11.382812 15.5 11.839844 C 16.019531 12.296875 17.261719 11.707031 18.277344 10.527344 C 19.292969 9.347656 19.695312 8.019531 19.175781 7.5625 " fill-opacity="1" fill-rule="nonzero"/><path fill="#5b5f97" d="M 15.621094 12.445312 C 15.359375 12.347656 14.984375 12.707031 14.777344 13.25 C 14.570312 13.792969 14.613281 14.3125 14.875 14.410156 C 15.132812 14.507812 15.511719 14.148438 15.71875 13.605469 C 15.921875 13.0625 15.878906 12.542969 15.621094 12.445312 " fill-opacity="1" fill-rule="nonzero"/><path fill="#5b5f97" d="M 14.992188 14.867188 C 14.804688 14.867188 14.652344 15.082031 14.644531 15.351562 C 14.640625 15.621094 14.785156 15.839844 14.96875 15.84375 C 15.152344 15.84375 15.308594 15.628906 15.3125 15.359375 C 15.320312 15.089844 15.175781 14.871094 14.992188 14.867188 " fill-opacity="1" fill-rule="nonzero"/><g clip-path="url(#7a19169d71)"><path fill="#5b5f97" d="M 30.550781 6.722656 C 30.488281 6.722656 30.4375 6.679688 30.425781 6.621094 L 30.125 5.003906 L 28.832031 5.394531 C 28.773438 5.414062 28.710938 5.386719 28.683594 5.335938 C 28.652344 5.28125 28.667969 5.214844 28.714844 5.175781 L 29.730469 4.339844 L 28.714844 3.507812 C 28.667969 3.46875 28.652344 3.402344 28.683594 3.347656 C 28.710938 3.292969 28.773438 3.269531 28.832031 3.285156 L 30.125 3.679688 L 30.425781 2.0625 C 30.4375 2 30.488281 1.957031 30.550781 1.957031 C 30.613281 1.957031 30.664062 2 30.675781 2.0625 L 30.976562 3.679688 L 32.269531 3.285156 C 32.328125 3.269531 32.390625 3.292969 32.417969 3.347656 C 32.449219 3.402344 32.433594 3.46875 32.386719 3.507812 L 31.371094 4.339844 L 32.386719 5.175781 C 32.433594 5.214844 32.449219 5.28125 32.417969 5.335938 C 32.390625 5.386719 32.328125 5.414062 32.269531 5.394531 L 30.976562 5.003906 L 30.675781 6.621094 C 30.664062 6.679688 30.613281 6.722656 30.550781 6.722656 " fill-opacity="1" fill-rule="nonzero"/></g><g clip-path="url(#d816e7cb78)"><path fill="#5b5f97" d="M 33.183594 10.023438 C 33.136719 10.023438 33.097656 9.992188 33.089844 9.949219 L 32.867188 8.75 L 31.914062 9.042969 C 31.871094 9.054688 31.824219 9.035156 31.800781 8.996094 C 31.78125 8.957031 31.789062 8.90625 31.824219 8.878906 L 32.578125 8.261719 L 31.824219 7.644531 C 31.789062 7.617188 31.78125 7.566406 31.800781 7.527344 C 31.824219 7.488281 31.871094 7.46875 31.914062 7.480469 L 32.867188 7.773438 L 33.089844 6.578125 C 33.097656 6.53125 33.136719 6.5 33.183594 6.5 C 33.230469 6.5 33.269531 6.53125 33.277344 6.578125 L 33.5 7.773438 L 34.457031 7.480469 C 34.5 7.46875 34.542969 7.488281 34.566406 7.527344 C 34.585938 7.566406 34.578125 7.617188 34.542969 7.644531 L 33.789062 8.261719 L 34.542969 8.878906 C 34.578125 8.90625 34.585938 8.957031 34.566406 8.996094 C 34.542969 9.035156 34.5 9.054688 34.457031 9.042969 L 33.5 8.75 L 33.277344 9.949219 C 33.269531 9.992188 33.230469 10.023438 33.183594 10.023438 " fill-opacity="1" fill-rule="nonzero"/></g><g clip-path="url(#f04d750ff7)"><path fill="#5b5f97" d="M 12.15625 8.632812 C 12.113281 8.632812 12.074219 8.601562 12.066406 8.558594 L 11.84375 7.359375 L 10.886719 7.652344 C 10.84375 7.664062 10.796875 7.644531 10.777344 7.605469 C 10.753906 7.566406 10.765625 7.519531 10.800781 7.488281 L 11.550781 6.871094 L 10.800781 6.253906 C 10.765625 6.226562 10.753906 6.175781 10.777344 6.136719 C 10.796875 6.097656 10.84375 6.078125 10.886719 6.089844 L 11.84375 6.382812 L 12.066406 5.1875 C 12.074219 5.140625 12.113281 5.109375 12.15625 5.109375 C 12.203125 5.109375 12.242188 5.140625 12.25 5.1875 L 12.472656 6.382812 L 13.429688 6.089844 C 13.472656 6.078125 13.519531 6.097656 13.539062 6.136719 C 13.558594 6.175781 13.550781 6.226562 13.515625 6.253906 L 12.761719 6.871094 L 13.515625 7.488281 C 13.550781 7.519531 13.558594 7.566406 13.539062 7.605469 C 13.519531 7.644531 13.472656 7.664062 13.429688 7.652344 L 12.472656 7.359375 L 12.25 8.558594 C 12.242188 8.601562 12.203125 8.632812 12.15625 8.632812 " fill-opacity="1" fill-rule="nonzero"/></g><g clip-path="url(#44cfbddf5d)"><path fill="#ffffff" d="M 27.28125 12.921875 C 27.28125 13.355469 27.242188 13.785156 27.15625 14.210938 C 27.070312 14.636719 26.945312 15.050781 26.78125 15.453125 C 26.613281 15.855469 26.410156 16.238281 26.167969 16.597656 C 25.925781 16.960938 25.652344 17.292969 25.34375 17.601562 C 25.035156 17.910156 24.703125 18.183594 24.339844 18.425781 C 23.980469 18.664062 23.597656 18.871094 23.195312 19.035156 C 22.796875 19.203125 22.382812 19.328125 21.953125 19.414062 C 21.527344 19.496094 21.097656 19.539062 20.664062 19.539062 C 20.230469 19.539062 19.796875 19.496094 19.371094 19.414062 C 18.945312 19.328125 18.53125 19.203125 18.128906 19.035156 C 17.730469 18.871094 17.347656 18.664062 16.984375 18.425781 C 16.625 18.183594 16.289062 17.910156 15.984375 17.601562 C 15.675781 17.292969 15.402344 16.960938 15.160156 16.597656 C 14.917969 16.238281 14.714844 15.855469 14.546875 15.453125 C 14.382812 15.050781 14.253906 14.636719 14.171875 14.210938 C 14.085938 13.785156 14.042969 13.355469 14.042969 12.921875 C 14.042969 12.484375 14.085938 12.054688 14.171875 11.628906 C 14.253906 11.203125 14.382812 10.789062 14.546875 10.386719 C 14.714844 9.984375 14.917969 9.605469 15.160156 9.242188 C 15.402344 8.882812 15.675781 8.546875 15.984375 8.238281 C 16.289062 7.933594 16.625 7.65625 16.984375 7.417969 C 17.347656 7.175781 17.730469 6.96875 18.128906 6.804688 C 18.53125 6.636719 18.945312 6.511719 19.371094 6.425781 C 19.796875 6.34375 20.230469 6.300781 20.664062 6.300781 C 21.097656 6.300781 21.527344 6.34375 21.953125 6.425781 C 22.382812 6.511719 22.796875 6.636719 23.195312 6.804688 C 23.597656 6.96875 23.980469 7.175781 24.339844 7.417969 C 24.703125 7.65625 25.035156 7.933594 25.34375 8.238281 C 25.652344 8.546875 25.925781 8.882812 26.167969 9.242188 C 26.410156 9.605469 26.613281 9.984375 26.78125 10.386719 C 26.945312 10.789062 27.070312 11.203125 27.15625 11.628906 C 27.242188 12.054688 27.28125 12.484375 27.28125 12.921875 Z M 27.28125 12.921875 " fill-opacity="1" fill-rule="nonzero"/></g><g clip-path="url(#d953bc45fc)"><path fill="#5b5f97" d="M 20.746094 10.824219 C 20.746094 10.375 20.925781 10.03125 21.285156 9.792969 C 21.546875 9.617188 21.816406 9.53125 22.089844 9.53125 L 22.089844 12.238281 C 21.195312 11.871094 20.746094 11.398438 20.746094 10.824219 Z M 22.605469 14.046875 C 23.574219 14.402344 24.058594 14.917969 24.058594 15.601562 C 24.058594 16.023438 23.878906 16.367188 23.519531 16.621094 C 23.242188 16.824219 22.9375 16.929688 22.605469 16.941406 Z M 20.78125 15.71875 C 20.945312 15.59375 21.027344 15.429688 21.027344 15.222656 C 21.027344 14.820312 20.808594 14.617188 20.375 14.617188 C 20.1875 14.617188 20.019531 14.683594 19.871094 14.8125 C 19.65625 15.003906 19.550781 15.28125 19.550781 15.652344 C 19.550781 16.234375 19.804688 16.699219 20.3125 17.054688 C 20.789062 17.390625 21.382812 17.558594 22.089844 17.558594 L 22.089844 18.457031 L 22.605469 18.457031 L 22.605469 17.519531 C 23.582031 17.398438 24.28125 17.050781 24.714844 16.476562 C 25.011719 16.074219 25.164062 15.59375 25.164062 15.042969 C 25.164062 14.140625 24.621094 13.410156 23.542969 12.855469 C 23.144531 12.667969 22.832031 12.523438 22.605469 12.425781 L 22.605469 9.457031 C 22.921875 9.457031 23.214844 9.546875 23.488281 9.722656 C 23.761719 9.894531 23.898438 10.089844 23.898438 10.300781 C 23.898438 10.363281 23.839844 10.4375 23.726562 10.53125 C 23.613281 10.625 23.558594 10.742188 23.558594 10.882812 C 23.558594 11.296875 23.75 11.503906 24.136719 11.503906 C 24.632812 11.503906 24.882812 11.199219 24.882812 10.589844 C 24.882812 10.167969 24.679688 9.800781 24.277344 9.492188 C 23.839844 9.164062 23.28125 9.003906 22.605469 9.003906 L 22.605469 8.140625 L 22.089844 8.140625 L 22.089844 9.003906 C 21.472656 9.019531 20.933594 9.234375 20.476562 9.65625 C 19.988281 10.09375 19.746094 10.628906 19.746094 11.261719 C 19.746094 11.945312 20.003906 12.5 20.527344 12.921875 C 20.78125 13.128906 21.300781 13.417969 22.089844 13.792969 L 22.089844 16.980469 C 21.742188 16.996094 21.398438 16.914062 21.066406 16.734375 C 20.710938 16.539062 20.535156 16.3125 20.535156 16.058594 C 20.535156 15.953125 20.617188 15.839844 20.78125 15.71875 " fill-opacity="1" fill-rule="nonzero"/></g><g fill="#111c2d" fill-opacity="1"><g transform="translate(41.374881, 23.896565)"><g><path d="M 5.515625 -15.640625 L 5.515625 -8.84375 L 11.1875 -8.84375 L 11.1875 -7.6875 L 5.515625 -7.6875 L 5.515625 -2.6875 C 5.515625 -2.3125 5.566406 -2.015625 5.671875 -1.796875 C 5.773438 -1.578125 5.910156 -1.40625 6.078125 -1.28125 C 6.253906 -1.164062 6.457031 -1.085938 6.6875 -1.046875 C 6.925781 -1.003906 7.175781 -0.984375 7.4375 -0.984375 L 8.21875 -0.984375 L 8.21875 0 L 0.890625 0 L 0.890625 -0.984375 L 1.203125 -0.984375 C 1.460938 -0.984375 1.707031 -1 1.9375 -1.03125 C 2.175781 -1.070312 2.378906 -1.144531 2.546875 -1.25 C 2.722656 -1.363281 2.863281 -1.523438 2.96875 -1.734375 C 3.070312 -1.941406 3.125 -2.21875 3.125 -2.5625 L 3.125 -14.234375 C 3.125 -14.578125 3.070312 -14.851562 2.96875 -15.0625 C 2.863281 -15.269531 2.722656 -15.429688 2.546875 -15.546875 C 2.378906 -15.671875 2.175781 -15.75 1.9375 -15.78125 C 1.707031 -15.8125 1.460938 -15.828125 1.203125 -15.828125 L 0.890625 -15.828125 L 0.890625 -16.828125 L 12.765625 -16.828125 L 12.890625 -12.703125 L 11.671875 -12.703125 L 11.546875 -13.71875 C 11.515625 -13.976562 11.453125 -14.222656 11.359375 -14.453125 C 11.273438 -14.691406 11.144531 -14.898438 10.96875 -15.078125 C 10.800781 -15.253906 10.582031 -15.390625 10.3125 -15.484375 C 10.050781 -15.585938 9.738281 -15.640625 9.375 -15.640625 Z M 5.515625 -15.640625 "/></g></g></g><g fill="#111c2d" fill-opacity="1"><g transform="translate(55.269063, 23.896565)"><g><path d="M 12.296875 -6.34375 C 12.296875 -4.125 11.828125 -2.472656 10.890625 -1.390625 C 9.953125 -0.304688 8.578125 0.234375 6.765625 0.234375 C 5.910156 0.234375 5.144531 0.0976562 4.46875 -0.171875 C 3.800781 -0.441406 3.226562 -0.847656 2.75 -1.390625 C 2.28125 -1.929688 1.921875 -2.613281 1.671875 -3.4375 C 1.421875 -4.269531 1.296875 -5.238281 1.296875 -6.34375 C 1.296875 -8.539062 1.757812 -10.175781 2.6875 -11.25 C 3.625 -12.320312 5.003906 -12.859375 6.828125 -12.859375 C 7.679688 -12.859375 8.445312 -12.722656 9.125 -12.453125 C 9.800781 -12.191406 10.375 -11.789062 10.84375 -11.25 C 11.3125 -10.71875 11.671875 -10.039062 11.921875 -9.21875 C 12.171875 -8.40625 12.296875 -7.445312 12.296875 -6.34375 Z M 3.578125 -6.34375 C 3.578125 -5.46875 3.632812 -4.695312 3.75 -4.03125 C 3.863281 -3.363281 4.046875 -2.804688 4.296875 -2.359375 C 4.554688 -1.910156 4.890625 -1.566406 5.296875 -1.328125 C 5.710938 -1.097656 6.21875 -0.984375 6.8125 -0.984375 C 7.40625 -0.984375 7.90625 -1.097656 8.3125 -1.328125 C 8.71875 -1.566406 9.046875 -1.910156 9.296875 -2.359375 C 9.546875 -2.804688 9.726562 -3.363281 9.84375 -4.03125 C 9.957031 -4.695312 10.015625 -5.46875 10.015625 -6.34375 C 10.015625 -7.21875 9.957031 -7.984375 9.84375 -8.640625 C 9.726562 -9.296875 9.539062 -9.84375 9.28125 -10.28125 C 9.03125 -10.726562 8.695312 -11.0625 8.28125 -11.28125 C 7.875 -11.507812 7.375 -11.625 6.78125 -11.625 C 6.195312 -11.625 5.703125 -11.507812 5.296875 -11.28125 C 4.890625 -11.0625 4.554688 -10.726562 4.296875 -10.28125 C 4.046875 -9.84375 3.863281 -9.296875 3.75 -8.640625 C 3.632812 -7.984375 3.578125 -7.21875 3.578125 -6.34375 Z M 3.578125 -6.34375 "/></g></g></g><g fill="#111c2d" fill-opacity="1"><g transform="translate(68.864197, 23.896565)"><g><path d="M 7.578125 0 L 0.78125 0 L 0.78125 -0.984375 L 0.84375 -0.984375 C 1.113281 -0.984375 1.363281 -1.003906 1.59375 -1.046875 C 1.832031 -1.085938 2.035156 -1.164062 2.203125 -1.28125 C 2.378906 -1.40625 2.519531 -1.578125 2.625 -1.796875 C 2.726562 -2.015625 2.78125 -2.3125 2.78125 -2.6875 L 2.78125 -10.03125 C 2.78125 -10.375 2.726562 -10.648438 2.625 -10.859375 C 2.519531 -11.078125 2.378906 -11.242188 2.203125 -11.359375 C 2.023438 -11.472656 1.820312 -11.546875 1.59375 -11.578125 C 1.363281 -11.617188 1.113281 -11.640625 0.84375 -11.640625 L 0.78125 -11.640625 L 0.78125 -12.625 L 4.40625 -12.625 L 4.859375 -10.296875 L 4.96875 -10.296875 C 5.125 -10.648438 5.28125 -10.984375 5.4375 -11.296875 C 5.601562 -11.609375 5.800781 -11.878906 6.03125 -12.109375 C 6.269531 -12.335938 6.5625 -12.519531 6.90625 -12.65625 C 7.25 -12.789062 7.679688 -12.859375 8.203125 -12.859375 C 9.054688 -12.859375 9.691406 -12.707031 10.109375 -12.40625 C 10.535156 -12.113281 10.75 -11.695312 10.75 -11.15625 C 10.75 -10.90625 10.707031 -10.675781 10.625 -10.46875 C 10.539062 -10.257812 10.410156 -10.078125 10.234375 -9.921875 C 10.054688 -9.773438 9.828125 -9.660156 9.546875 -9.578125 C 9.273438 -9.503906 8.941406 -9.46875 8.546875 -9.46875 C 8.546875 -10.125 8.453125 -10.59375 8.265625 -10.875 C 8.085938 -11.164062 7.769531 -11.3125 7.3125 -11.3125 C 7.019531 -11.3125 6.753906 -11.226562 6.515625 -11.0625 C 6.285156 -10.894531 6.082031 -10.675781 5.90625 -10.40625 C 5.738281 -10.132812 5.59375 -9.820312 5.46875 -9.46875 C 5.351562 -9.113281 5.257812 -8.75 5.1875 -8.375 C 5.113281 -8.007812 5.0625 -7.640625 5.03125 -7.265625 C 5.007812 -6.898438 5 -6.566406 5 -6.265625 L 5 -2.5625 C 5 -2.21875 5.046875 -1.941406 5.140625 -1.734375 C 5.242188 -1.523438 5.382812 -1.363281 5.5625 -1.25 C 5.738281 -1.144531 5.941406 -1.070312 6.171875 -1.03125 C 6.410156 -1 6.660156 -0.984375 6.921875 -0.984375 L 7.578125 -0.984375 Z M 7.578125 0 "/></g></g></g><g fill="#111c2d" fill-opacity="1"><g transform="translate(79.963441, 23.896565)"><g><path d="M 6.25 -1.015625 C 6.53125 -1.015625 6.789062 -1.03125 7.03125 -1.0625 C 7.269531 -1.09375 7.507812 -1.128906 7.75 -1.171875 L 7.75 -0.140625 C 7.65625 -0.0859375 7.523438 -0.0390625 7.359375 0 C 7.203125 0.0390625 7.03125 0.078125 6.84375 0.109375 C 6.65625 0.148438 6.457031 0.179688 6.25 0.203125 C 6.039062 0.222656 5.84375 0.234375 5.65625 0.234375 C 5.0625 0.234375 4.546875 0.164062 4.109375 0.03125 C 3.679688 -0.09375 3.328125 -0.296875 3.046875 -0.578125 C 2.773438 -0.859375 2.570312 -1.234375 2.4375 -1.703125 C 2.3125 -2.171875 2.25 -2.742188 2.25 -3.421875 L 2.25 -11.28125 L 0.453125 -11.28125 L 0.453125 -12.234375 C 0.734375 -12.234375 1.039062 -12.289062 1.375 -12.40625 C 1.71875 -12.519531 2.023438 -12.710938 2.296875 -12.984375 C 2.554688 -13.273438 2.769531 -13.617188 2.9375 -14.015625 C 3.101562 -14.421875 3.25 -14.925781 3.375 -15.53125 L 4.453125 -15.53125 L 4.453125 -12.625 L 7.53125 -12.625 L 7.53125 -11.28125 L 4.453125 -11.28125 L 4.453125 -3.34375 C 4.453125 -2.539062 4.613281 -1.953125 4.9375 -1.578125 C 5.269531 -1.203125 5.707031 -1.015625 6.25 -1.015625 Z M 6.25 -1.015625 "/></g></g></g><g fill="#111c2d" fill-opacity="1"><g transform="translate(88.256246, 23.896565)"><g><path d="M 6.484375 -11.59375 C 5.609375 -11.59375 4.929688 -11.238281 4.453125 -10.53125 C 3.984375 -9.820312 3.707031 -8.785156 3.625 -7.421875 L 9.046875 -7.421875 C 9.046875 -8.046875 9 -8.613281 8.90625 -9.125 C 8.8125 -9.632812 8.664062 -10.070312 8.46875 -10.4375 C 8.269531 -10.8125 8.003906 -11.097656 7.671875 -11.296875 C 7.347656 -11.492188 6.953125 -11.59375 6.484375 -11.59375 Z M 6.765625 0.234375 C 5.910156 0.234375 5.144531 0.09375 4.46875 -0.1875 C 3.789062 -0.476562 3.21875 -0.898438 2.75 -1.453125 C 2.28125 -2.015625 1.921875 -2.691406 1.671875 -3.484375 C 1.421875 -4.285156 1.296875 -5.195312 1.296875 -6.21875 C 1.296875 -8.425781 1.75 -10.082031 2.65625 -11.1875 C 3.5625 -12.300781 4.847656 -12.859375 6.515625 -12.859375 C 7.273438 -12.859375 7.957031 -12.738281 8.5625 -12.5 C 9.175781 -12.269531 9.691406 -11.914062 10.109375 -11.4375 C 10.535156 -10.96875 10.859375 -10.378906 11.078125 -9.671875 C 11.304688 -8.972656 11.421875 -8.160156 11.421875 -7.234375 L 11.421875 -6.15625 L 3.578125 -6.15625 C 3.585938 -5.289062 3.671875 -4.550781 3.828125 -3.9375 C 3.992188 -3.320312 4.222656 -2.8125 4.515625 -2.40625 C 4.804688 -2.007812 5.164062 -1.71875 5.59375 -1.53125 C 6.03125 -1.34375 6.53125 -1.25 7.09375 -1.25 C 7.5 -1.25 7.875 -1.296875 8.21875 -1.390625 C 8.570312 -1.484375 8.890625 -1.601562 9.171875 -1.75 C 9.453125 -1.90625 9.703125 -2.082031 9.921875 -2.28125 C 10.140625 -2.476562 10.316406 -2.6875 10.453125 -2.90625 C 10.566406 -2.851562 10.671875 -2.753906 10.765625 -2.609375 C 10.859375 -2.460938 10.90625 -2.289062 10.90625 -2.09375 C 10.90625 -1.851562 10.820312 -1.597656 10.65625 -1.328125 C 10.488281 -1.054688 10.226562 -0.804688 9.875 -0.578125 C 9.53125 -0.347656 9.097656 -0.15625 8.578125 0 C 8.066406 0.15625 7.460938 0.234375 6.765625 0.234375 Z M 6.765625 0.234375 "/></g></g></g><g fill="#111c2d" fill-opacity="1"><g transform="translate(100.862225, 23.896565)"><g><path d="M 0.609375 -0.984375 C 0.878906 -0.984375 1.128906 -1.003906 1.359375 -1.046875 C 1.597656 -1.085938 1.800781 -1.164062 1.96875 -1.28125 C 2.144531 -1.40625 2.285156 -1.578125 2.390625 -1.796875 C 2.492188 -2.015625 2.546875 -2.3125 2.546875 -2.6875 L 2.546875 -15.3125 C 2.546875 -15.65625 2.492188 -15.929688 2.390625 -16.140625 C 2.285156 -16.359375 2.144531 -16.523438 1.96875 -16.640625 C 1.789062 -16.753906 1.582031 -16.828125 1.34375 -16.859375 C 1.113281 -16.890625 0.867188 -16.90625 0.609375 -16.90625 L 0.3125 -16.90625 L 0.3125 -17.90625 L 4.765625 -17.90625 L 4.765625 -2.6875 C 4.765625 -2.3125 4.8125 -2.015625 4.90625 -1.796875 C 5.007812 -1.578125 5.148438 -1.40625 5.328125 -1.28125 C 5.503906 -1.164062 5.707031 -1.085938 5.9375 -1.046875 C 6.175781 -1.003906 6.429688 -0.984375 6.703125 -0.984375 L 7 -0.984375 L 7 0 L 0.3125 0 L 0.3125 -0.984375 Z M 0.609375 -0.984375 "/></g></g></g><g fill="#111c2d" fill-opacity="1"><g transform="translate(108.16587, 23.896565)"><g><path d="M 0.609375 -0.984375 C 0.878906 -0.984375 1.128906 -1.003906 1.359375 -1.046875 C 1.597656 -1.085938 1.800781 -1.164062 1.96875 -1.28125 C 2.144531 -1.40625 2.285156 -1.578125 2.390625 -1.796875 C 2.492188 -2.015625 2.546875 -2.3125 2.546875 -2.6875 L 2.546875 -15.3125 C 2.546875 -15.65625 2.492188 -15.929688 2.390625 -16.140625 C 2.285156 -16.359375 2.144531 -16.523438 1.96875 -16.640625 C 1.789062 -16.753906 1.582031 -16.828125 1.34375 -16.859375 C 1.113281 -16.890625 0.867188 -16.90625 0.609375 -16.90625 L 0.3125 -16.90625 L 0.3125 -17.90625 L 4.765625 -17.90625 L 4.765625 -2.6875 C 4.765625 -2.3125 4.8125 -2.015625 4.90625 -1.796875 C 5.007812 -1.578125 5.148438 -1.40625 5.328125 -1.28125 C 5.503906 -1.164062 5.707031 -1.085938 5.9375 -1.046875 C 6.175781 -1.003906 6.429688 -0.984375 6.703125 -0.984375 L 7 -0.984375 L 7 0 L 0.3125 0 L 0.3125 -0.984375 Z M 0.609375 -0.984375 "/></g></g></g></svg>